<?xml version="1.0" encoding="UTF-8" standalone="no"?>
<svg width="36px" height="36px" viewBox="0 0 36 36" version="1.1" xmlns="http://www.w3.org/2000/svg" xmlns:xlink="http://www.w3.org/1999/xlink">
    <!-- Generator: Sketch 46.2 (44496) - http://www.bohemiancoding.com/sketch -->
    <title>loading@1x</title>
    <desc>Created with Sketch.</desc>
    <defs>
        <linearGradient x1="13.3540871%" y1="106.368829%" x2="75.6311712%" y2="37.4317235%" id="linearGradient-1">
            <stop stop-color="#FFFFFF" offset="0%"></stop>
            <stop stop-color="#FFFFFF" stop-opacity="0" offset="100%"></stop>
        </linearGradient>
        <linearGradient x1="95.572765%" y1="50%" x2="85.9922605%" y2="100%" id="linearGradient-2">
            <stop stop-color="#FFFFFF" offset="0%"></stop>
            <stop stop-color="#FFFFFF" stop-opacity="0" offset="100%"></stop>
        </linearGradient>
    </defs>
    <g id="效果图" stroke="none" stroke-width="1" fill="none" fill-rule="evenodd">
        <g id="loading">
            <g id="Group">
                <path d="M18,4.17873334 L18,4.2 C10.3784705,4.2 4.2,10.3784705 4.2,18 C4.2,25.6215295 10.3784705,31.8 18,31.8 C25.6215295,31.8 31.8,25.6215295 31.8,18 C31.8,12.8589014 28.9886911,8.3744192 24.81952,6 L31.416639,6 C34.2668786,9.18453895 36,13.3898734 36,18 C36,27.9411255 27.9411255,36 18,36 C8.0588745,36 0,27.9411255 0,18 C0,8.0588745 8.0588745,0 18,0 L18,0.0212666576 C18.0979809,0.0072515885 18.1981436,0 18.3,0 C19.459798,0 20.4,0.940202025 20.4,2.1 C20.4,3.25979797 19.459798,4.2 18.3,4.2 C18.1981436,4.2 18.0979809,4.19274841 18,4.17873334 Z" id="Combined-Shape" fill="url(#linearGradient-1)"></path>
                <path d="M18,0.0212666576 L18,4.19664303e-15 C8.0588745,0 0,8.0588745 0,18 C0,24.0024901 2.93809737,29.3187508 7.4546055,32.5890955 L10.1336968,29.3399847 C6.5476005,26.8477044 4.2,22.6980079 4.2,18 C4.2,10.3784705 10.3784705,4.2 18,4.2 L18,4.17873334 C18.0979809,4.19274841 18.1981436,4.2 18.3,4.2 C19.459798,4.2 20.4,3.25979797 20.4,2.1 C20.4,0.940202025 19.459798,0 18.3,0 C18.1981436,0 18.0979809,0.0072515885 18,0.0212666576 Z" id="Combined-Shape" fill="url(#linearGradient-2)"></path>
            </g>
        </g>
    </g>
</svg>