<?xml version="1.0" encoding="UTF-8" standalone="no"?>
<svg width="36px" height="36px" viewBox="0 0 36 36" version="1.1" xmlns="http://www.w3.org/2000/svg" xmlns:xlink="http://www.w3.org/1999/xlink">
    <!-- Generator: Sketch 43.1 (39012) - http://www.bohemiancoding.com/sketch -->
    <title>警告@1x</title>
    <desc>Created with Sketch.</desc>
    <defs></defs>
    <g id="2.0-3_防御设置" stroke="none" stroke-width="1" fill="none" fill-rule="evenodd">
        <g id="警告">
            <g transform="translate(0.000000, 2.000000)">
                <path d="M20.2959713,2.52425377 L34.5080891,27.0435348 C35.0908818,28.028532 35.1486241,29.0043754 34.7176906,29.8076212 C34.2608756,30.5620211 33.3939447,31 32.2144847,31 L3.78551532,31 C2.63834269,31 1.68787352,30.5123219 1.26809131,29.7820259 C0.853290229,29.0603955 0.913937413,28.0203876 1.48736272,27.0513008 L15.7063956,2.52017031 C16.2928382,1.52916386 17.1128619,1 18,1 C18.8860471,1 19.7051449,1.52786321 20.2959713,2.52425377 Z" id="Shape" stroke="#FFAF0F" stroke-width="2"></path>
                <path d="M17.0077588,10.4912653 C16.9576127,9.66766222 17.5884068,9 18.4258237,9 L18.5741857,9 C19.4075074,9 20.0427083,9.66254437 19.9922506,10.4912653 L19.382324,20.5087347 C19.3321779,21.3323378 18.6109863,22 17.7935943,22 L19.2064151,22 C18.37913,22 17.6681431,21.3374556 17.6176854,20.5087347 L17.0077588,10.4912653 Z" id="Rectangle-24" fill="#FFC52F"></path>
                <circle id="Oval-8" fill="#FFC52F" cx="18.5" cy="25.5" r="1.5"></circle>
            </g>
        </g>
    </g>
</svg>